<?xml version="1.0" encoding="iso-8859-1"?>
<!-- Uploaded to: SVG Repo, www.svgrepo.com, Generator: SVG Repo Mixer Tools -->
<!DOCTYPE svg PUBLIC "-//W3C//DTD SVG 1.1//EN" "http://www.w3.org/Graphics/SVG/1.1/DTD/svg11.dtd">
<svg fill="#000000" height="800px" width="800px" version="1.1" id="Capa_1" xmlns="http://www.w3.org/2000/svg" xmlns:xlink="http://www.w3.org/1999/xlink" 
	 viewBox="0 0 207.049 207.049" xml:space="preserve">
<path d="M64.465,207.049c-0.019,0-0.038,0-0.057,0H49.456c-0.859,0-1.676-0.368-2.246-1.011c-0.569-0.643-0.836-1.499-0.732-2.352
	l7.518-61.747c2.879-23.648,11.224-46.575,24.141-66.342V50.895c-6.105-0.885-10.81-6.153-10.81-12.5v-0.67
	c0-6.961,5.662-12.625,12.622-12.63L78.146,3.247c-0.136-1.651,1.092-3.1,2.743-3.236c1.654-0.138,3.1,1.092,3.236,2.743
	l1.842,22.34h35.203l1.842-22.34c0.137-1.651,1.567-2.883,3.236-2.743c1.651,0.136,2.88,1.585,2.744,3.236l-1.802,21.847
	c6.96,0.005,12.621,5.669,12.621,12.63v0.67c0,6.346-4.705,11.614-10.81,12.5v23.347c0.117,0.124,0.225,0.259,0.32,0.404
	l0.299,0.453c0,0,0.001,0.001,0.001,0.002c13.297,20.173,21.718,43.644,24.351,67.874l6.603,60.749
	c0.092,0.847-0.181,1.693-0.749,2.328c-0.569,0.634-1.381,0.997-2.233,0.997H64.521C64.503,207.049,64.484,207.049,64.465,207.049z
	 M67.632,201.048h86.617l-6.241-57.425c-2.492-22.928-10.374-45.146-22.81-64.325h-23.267c-1.891,5.512-7.141,22.202-8.784,41.919
	c-0.138,1.651-1.598,2.876-3.239,2.741c-1.651-0.138-2.878-1.588-2.741-3.239c1.552-18.619,6.087-34.302,8.425-41.421h-3.505
	c-3.047,6.816-14.129,32.739-18.074,57.543C70.176,160.985,68.199,191.322,67.632,201.048z M52.843,201.048h8.78
	c0.545-9.443,2.542-40.467,6.467-65.149c3.725-23.421,13.304-47.111,17.433-56.601h-2.638C70.625,98.203,62.7,120.09,59.951,142.664
	L52.843,201.048z M99.866,73.299h23.136V51.026H84.136v22.273h5.966c0.038-0.001,0.076-0.001,0.116,0h9.548
	C99.8,73.298,99.833,73.298,99.866,73.299z M79.956,31.094c-3.656,0-6.63,2.975-6.63,6.63v0.67c0,3.656,2.974,6.63,6.63,6.63h47.226
	c3.655,0,6.63-2.975,6.63-6.63v-0.67c0-3.656-2.975-6.63-6.63-6.63h-3.216c-0.021,0-0.04,0-0.06,0H83.232c-0.021,0-0.04,0-0.059,0
	H79.956z"/>
</svg>